<svg width="138" height="41" viewBox="0 0 138 41" fill="none" xmlns="http://www.w3.org/2000/svg">
<path d="M35.3793 5.13118C35.4176 4.60668 35.4176 4.07256 35.5611 3.5625C35.5324 3.9282 35.5946 4.28909 35.609 4.6548C35.6664 5.33327 35.6855 6.01656 35.7382 6.69504C35.8339 7.58043 35.8243 8.47544 35.8769 9.36564C35.9678 11.2375 35.987 13.1141 36.0492 14.9907C36.1449 16.9395 36.1018 18.8932 36.1162 20.8468C36.097 22.7234 36.1496 24.6001 36.0635 26.4767C35.9918 28.3774 35.987 30.2781 35.8913 32.1788C35.8291 33.2711 35.8386 34.3634 35.719 35.4509C35.6855 36.4181 35.5659 37.3804 35.5516 38.3476C35.4128 37.8616 35.4176 37.3516 35.3793 36.8511C35.1497 33.7186 35.0588 30.5812 34.9726 27.4439C34.9152 25.3459 34.9296 23.2479 34.9248 21.1499C34.9296 19.2396 34.92 17.3293 34.9535 15.4238C35.0444 11.9881 35.1401 8.55724 35.3793 5.13118Z" fill="#0853BF"/>
<path d="M41.333 26.8015V11.8077H47.5146V14.358H44.2037V17.7744H47.328V20.3247H44.2037V26.8015H41.333ZM55.9258 23.1252C55.9258 25.7381 54.5335 26.994 52.1748 26.994C49.7729 26.994 48.5002 25.7092 48.5002 23.1252V18.5684C48.5002 15.9218 50.0935 14.791 52.2178 14.791C54.457 14.791 55.9258 15.9988 55.9258 18.679V23.1252ZM51.371 18.4288V23.284C51.371 24.0491 51.5863 24.5784 52.2274 24.5784C52.8637 24.5784 53.0551 24.078 53.0551 23.2551V18.4048C53.0551 17.6926 52.8877 17.1777 52.213 17.1777C51.6245 17.1777 51.371 17.6252 51.371 18.4288ZM64.5906 23.1252C64.5906 25.7381 63.1983 26.994 60.8395 26.994C58.4377 26.994 57.165 25.7092 57.165 23.1252V18.5684C57.165 15.9218 58.7583 14.791 60.8826 14.791C63.1218 14.791 64.5906 15.9988 64.5906 18.679V23.1252ZM60.0405 18.4288V23.284C60.0405 24.0491 60.2558 24.5784 60.897 24.5784C61.5333 24.5784 61.7247 24.078 61.7247 23.2551V18.4048C61.7247 17.6926 61.5572 17.1777 60.8826 17.1777C60.2893 17.1777 60.0405 17.6252 60.0405 18.4288ZM73.2602 11.1484V23.4909C73.2602 25.1751 73.2698 26.1808 73.2889 26.8015H70.5665C70.5234 26.4935 70.4756 25.9594 70.4708 25.7236C70.0115 26.5609 69.4086 26.9892 68.3273 26.9892C66.4566 26.9892 65.8346 25.536 65.8346 23.207V18.3374C65.8346 16.3693 66.5379 14.7862 68.5331 14.7862C69.289 14.7862 70.0593 15.0076 70.3895 15.6283V11.1484H73.2602ZM68.7101 18.5539V23.2166C68.7101 24.025 68.911 24.4918 69.5378 24.4918C70.222 24.4918 70.3942 23.8855 70.3942 22.8702V18.9004C70.3942 17.8466 70.2746 17.2884 69.5522 17.2884C68.9398 17.2884 68.7101 17.7311 68.7101 18.5539Z" fill="url(#paint0_linear_580_3737)"/>
<path d="M77.088 22.1821V23.2215C77.088 24.2079 77.332 24.665 77.9875 24.665C78.6478 24.665 78.8057 23.9866 78.8057 23.2792C78.8057 21.8645 78.5425 21.4555 77.021 20.1755C75.3417 18.7464 74.4804 17.8995 74.4804 15.6909C74.4804 13.5496 75.1838 11.5767 78.0114 11.5767C81.0113 11.5767 81.4515 13.6314 81.4515 15.3492V16.2105H78.7435V15.3059C78.7435 14.3965 78.5951 13.9441 78.0258 13.9441C77.4947 13.9441 77.3272 14.4013 77.3272 15.253C77.3272 16.1576 77.4899 16.6003 78.7243 17.5675C80.9156 19.2998 81.7051 20.2718 81.7051 22.7403C81.7051 25.0885 80.9061 27.0229 77.9444 27.0229C75.1024 27.0229 74.2891 25.2954 74.2891 23.0771V22.1773H77.088V22.1821ZM90.3603 23.053C90.3603 25.0259 90.3603 26.1423 90.389 26.8063H87.6283C87.5757 26.5369 87.5374 26.0508 87.5326 25.7766C87.0398 26.7341 86.236 26.994 85.3031 26.994C84.1452 26.994 82.9634 26.431 82.9634 23.9384V14.9691H85.8341V23.2503C85.8341 24.0732 86.0686 24.4918 86.6236 24.4918C87.2599 24.4918 87.4848 24.0732 87.4848 22.9472V14.9691H90.3555V23.053H90.3603ZM94.8865 26.0075V30.6462H92.0157V18.3663C92.0157 16.7783 92.0062 15.5657 91.987 14.9691H94.7477C94.786 15.1856 94.8386 15.6957 94.8434 16.0902C95.1927 15.3877 95.8721 14.7862 97.0443 14.7862C98.6854 14.7862 99.4413 15.8978 99.4413 18.1112V23.2455C99.4413 25.6659 98.7189 26.9844 96.7285 26.9844C95.9678 26.9892 95.2597 26.6571 94.8865 26.0075ZM96.5658 23.1252V18.5202C96.5658 17.7022 96.3218 17.2788 95.7764 17.2788C95.2214 17.2788 94.8865 17.6108 94.8865 18.7079V22.9231C94.8865 23.9047 95.0683 24.4822 95.7046 24.4822C96.341 24.4822 96.5658 24.0202 96.5658 23.1252ZM103.733 26.0075V30.6462H100.862V18.3663C100.862 16.7783 100.853 15.5657 100.834 14.9691H103.594C103.633 15.1856 103.685 15.6957 103.69 16.0902C104.039 15.3877 104.719 14.7862 105.891 14.7862C107.532 14.7862 108.288 15.8978 108.288 18.1112V23.2455C108.288 25.6659 107.565 26.9844 105.575 26.9844C104.814 26.9892 104.106 26.6571 103.733 26.0075ZM105.412 23.1252V18.5202C105.412 17.7022 105.168 17.2788 104.623 17.2788C104.068 17.2788 103.733 17.6108 103.733 18.7079V22.9231C103.733 23.9047 103.915 24.4822 104.551 24.4822C105.188 24.4822 105.412 24.0202 105.412 23.1252ZM109.709 26.8015V11.1484H112.58V26.8015H109.709ZM116.699 14.9691C117.149 18.0776 117.637 21.7683 117.709 23.284H117.814C117.977 21.3833 118.292 19.1169 118.867 14.9691H121.799C121.637 15.6235 119.666 25.204 119.254 27.0277C118.589 30.0736 117.713 30.7761 115.714 30.7761C115.197 30.7761 114.761 30.7328 114.379 30.6799L114.407 28.221C114.493 28.2306 114.809 28.2643 115.068 28.2643C115.728 28.2643 116.115 28.0815 116.249 27.2634L113.604 14.9691H116.699ZM121.579 26.8015V23.1733H124.436V26.8015H121.579ZM132.971 24.0972C132.971 25.1558 132.986 26.2866 133.038 26.8063H130.364C130.297 26.6138 130.215 26.1182 130.192 25.9354C129.742 26.6716 129.067 26.9795 128.182 26.9795C126.388 26.9795 125.67 25.3146 125.67 23.5102V23.2936C125.67 20.2621 127.713 19.5356 129.9 19.5356C129.967 19.5356 130.024 19.5356 130.091 19.5356V18.1594C130.091 17.3606 129.976 16.9997 129.45 16.9997C128.933 16.9997 128.794 17.3895 128.794 18.0824V18.3566H126.029V18.1738C126.029 16.1191 126.957 14.7958 129.57 14.7958C131.895 14.7958 132.962 15.9074 132.962 17.9717V24.0972H132.971ZM130.125 21.5517C130.034 21.5517 129.895 21.5517 129.852 21.5517C129.01 21.5517 128.46 21.9271 128.46 23.1637V23.3129C128.46 24.1309 128.727 24.5544 129.278 24.5544C129.861 24.5544 130.125 24.1453 130.125 22.9424V21.5517ZM137.507 14.9691V26.8015H134.636V14.9691H137.507ZM134.651 11.1484H137.521V13.7613H134.651V11.1484Z" fill="url(#paint1_linear_580_3737)"/>
<path d="M22.8176 39.9024C22.8176 40.4849 19.2515 40.9532 14.8507 40.9532C10.4499 40.9532 6.88379 40.4849 6.88379 39.9024C6.88379 39.3199 10.4499 38.8516 14.8507 38.8516C19.2515 38.8459 22.8176 39.3199 22.8176 39.9024Z" fill="#D1D3D4"/>
<path d="M28.0117 15.8242C28.0117 13.4743 27.3828 11.1672 26.1904 9.14235C24.998 7.11747 23.2855 5.44857 21.2305 4.30882C19.1755 3.16907 16.853 2.59999 14.5039 2.66064C12.1548 2.72128 9.8647 3.40944 7.87127 4.65371L9.42162 7.13751C10.9718 6.16991 12.7527 5.63476 14.5794 5.5876C16.4062 5.54044 18.2123 5.98298 19.8104 6.86931C21.4084 7.75563 22.7402 9.05344 23.6674 10.6281C24.5947 12.2027 25.0837 13.9968 25.0837 15.8242H28.0117Z" fill="#4285F4"/>
<path d="M7.96002 27.0496C9.96325 28.278 12.2587 28.948 14.6082 28.99C16.9577 29.0321 19.2757 28.4446 21.3216 27.2886C23.3674 26.1326 25.0667 24.4502 26.243 22.4159C27.4193 20.3816 28.0299 18.0696 28.0112 15.7198L25.0834 15.743C25.0979 17.5704 24.6231 19.3683 23.7083 20.9502C22.7936 22.5321 21.4722 23.8405 19.8812 24.7394C18.2902 25.6384 16.4877 26.0952 14.6606 26.0626C12.8335 26.0299 11.0484 25.5089 9.49064 24.5536L7.96002 27.0496Z" fill="#34A853"/>
<path d="M8.85293 4.09794C6.76032 5.16703 4.99192 6.77662 3.73122 8.7597C2.47053 10.7428 1.76347 13.0271 1.68342 15.3756C1.60337 17.7241 2.15325 20.0513 3.27599 22.1156C4.39872 24.1799 6.05342 25.9062 8.06838 27.1153L9.5749 24.6047C8.00798 23.6644 6.72121 22.322 5.84811 20.7167C4.97502 19.1114 4.54741 17.3017 4.60966 15.4754C4.67191 13.649 5.22175 11.8727 6.20213 10.3305C7.1825 8.78838 8.55769 7.53668 10.185 6.70531L8.85293 4.09794Z" fill="#EA4335"/>
<path d="M1.44964 19.3333L0.648977 20.2071C0.348017 19.2248 0.14927 18.214 0.069771 17.186C-0.157369 14.9815 0.183341 12.7486 0.898831 10.6641C1.17708 10.9211 1.44397 11.1952 1.71086 11.4693C0.847724 13.9936 0.779583 16.7634 1.44964 19.3333Z" fill="#4285F4"/>
<path d="M5.73685 26.294L5.05544 27.0364C4.39105 26.4539 3.77777 25.8086 3.22696 25.1175C2.07991 23.6669 1.19406 21.9936 0.648926 20.2175L1.44959 19.3438C1.56316 19.7778 1.69377 20.2004 1.84709 20.623C2.64775 22.7932 3.99356 24.7692 5.73685 26.294Z" fill="#2BA34C"/>
<path d="M12.8917 29.5786L12.0853 30.4638C10.7168 30.2068 9.38805 29.7613 8.15013 29.1217C7.03715 28.562 5.99799 27.8539 5.06104 27.0315L5.73678 26.2891C5.73678 26.2891 5.74245 26.2891 5.74245 26.2948C7.74128 28.0537 10.2625 29.1959 12.8917 29.5786Z" fill="#F0B501"/>
<path d="M19.9618 29.768C19.8028 29.945 19.5416 29.9507 19.3258 30.0364C16.9977 30.7731 14.4821 30.9159 12.0801 30.4704L12.8864 29.5852C13.9767 29.7451 15.0897 29.768 16.1856 29.6537C17.2248 29.5738 18.2356 29.3111 19.235 29.0312C19.4792 29.2825 19.7177 29.5338 19.9618 29.768Z" fill="#E43D2A"/>
<path d="M28.7806 21.0082C28.5194 20.7683 28.2638 20.517 28.0083 20.2715C28.1105 19.7346 28.3036 19.2149 28.4001 18.6781C28.7579 16.8849 28.7749 15.0231 28.4399 13.2242L29.2803 12.3047C29.4336 12.9272 29.5415 13.5611 29.6096 14.2007C29.8822 16.4908 29.5812 18.8437 28.7806 21.0082Z" fill="#4285F4"/>
<path d="M29.2739 12.2988L28.4392 13.2182C28.3767 12.887 28.3029 12.5558 28.2177 12.2303C27.6045 9.94587 26.3893 7.8271 24.7368 6.14237L25.4296 5.38281C25.6851 5.63981 25.9293 5.90822 26.1678 6.18806C27.6499 7.94703 28.7288 10.0601 29.2739 12.2988Z" fill="#2BA34C"/>
<path d="M25.4244 5.37267L24.7316 6.13223C24.1183 5.50402 23.4426 4.93864 22.7214 4.4475C21.2053 3.36812 19.462 2.63141 17.6392 2.25449L18.4398 1.375C19.2632 1.58059 20.0639 1.85472 20.8362 2.20309C22.5511 2.95694 24.1126 4.04202 25.4244 5.37267Z" fill="#F0B501"/>
<path d="M18.4459 1.38733L17.6452 2.26682C15.9928 1.92416 14.2722 1.88419 12.6084 2.16402C11.8929 2.27253 11.1944 2.49526 10.4903 2.65517C10.1837 2.44957 9.96788 2.13547 9.69531 1.88419C10.9332 1.38162 12.2563 1.14747 13.5737 0.981854C14.3574 0.936167 15.1467 0.9533 15.9303 0.976143C16.7764 1.05039 17.6168 1.18174 18.4459 1.38733Z" fill="#E43D2A"/>
<path d="M7.70703 30.2891C10.7223 31.871 14.2714 32.4878 17.6274 31.8367C18.9107 31.614 20.1429 31.1743 21.3184 30.6146C21.5569 30.5061 21.7897 30.369 22.0452 30.3062C19.6489 32.8647 17.2412 35.4175 14.8676 37.9989C14.2487 37.4563 13.7546 36.7938 13.1754 36.217C12.4997 35.4917 11.8126 34.7779 11.1482 34.0412C10.1885 32.9846 9.17208 31.9795 8.23513 30.9058C8.05342 30.7003 7.8206 30.5403 7.70703 30.2891Z" fill="#34A853"/>
<path d="M13.7509 23.7717C13.8531 24.537 13.7907 25.308 13.8588 26.079C14.6724 26.189 15.1249 26.2163 15.9371 26.0504C15.9826 25.0167 15.7668 23.8974 16.2779 22.9494C16.5845 22.3326 17.1921 21.9499 17.811 21.6987C18.5265 21.3846 19.0944 20.7449 19.2647 19.974C19.5089 19.3172 19.2534 18.6376 19.2023 17.9694C18.9297 15.7536 18.6287 13.5377 18.3335 11.3219C18.2824 11.0649 18.1404 10.7565 17.8565 10.6994C17.5271 10.6251 17.0728 10.6879 16.9422 11.0534C16.8514 11.5046 16.9195 11.9729 16.9252 12.4298C17.0501 14.0117 17.1012 15.5937 17.2489 17.1756C17.2829 17.5354 17.2602 17.958 16.965 18.2093C16.6924 18.3749 16.3119 18.432 16.045 18.2207C15.8009 17.9694 15.7327 17.5982 15.727 17.2613C15.693 15.3881 15.6532 13.5092 15.5851 11.636C15.5737 11.4132 15.5794 11.1734 15.4488 10.9849C15.1649 10.5623 14.3699 10.6537 14.262 11.1791C14.1427 11.733 14.1655 12.3041 14.1427 12.8695C14.1143 14.48 14.0462 16.0848 13.961 17.6953C13.9554 17.9066 13.8304 18.1008 13.6771 18.2378C13.3307 18.4948 12.7969 18.3692 12.5755 18.0094C12.4562 17.7752 12.4392 17.5068 12.4676 17.2555C12.5698 16.1762 12.5584 15.0911 12.689 14.0174C12.7231 13.1037 12.7913 12.1899 12.7799 11.2762C12.6663 10.8079 12.0644 10.608 11.6669 10.8421C11.5136 10.9506 11.3887 11.1105 11.3489 11.2933C11.082 13.492 10.7924 15.685 10.5199 17.8837C10.3609 18.8775 10.2132 20.0196 10.8663 20.8706C11.4 21.6358 12.3938 21.8186 13.0354 22.4582C13.4102 22.8066 13.643 23.2806 13.7509 23.7717Z" fill="#EFB500"/>
<defs>
<linearGradient id="paint0_linear_580_3737" x1="41.333" y1="11.1484" x2="139.715" y2="27.8838" gradientUnits="userSpaceOnUse">
<stop stop-color="#EA4335"/>
<stop offset="1" stop-color="#4285F4"/>
</linearGradient>
<linearGradient id="paint1_linear_580_3737" x1="40.3278" y1="11.1484" x2="137.522" y2="28.0353" gradientUnits="userSpaceOnUse">
<stop stop-color="#EA4335"/>
<stop offset="1" stop-color="#4285F4"/>
</linearGradient>
</defs>
</svg>
